<svg xmlns="http://www.w3.org/2000/svg" xmlns:xlink="http://www.w3.org/1999/xlink" version="1.1" x="0px" y="0px" viewBox="0 0 100 125" style="enable-background:new 0 0 100 100;" xml:space="preserve"><g><g><path d="M51.7,76.1c-14.4,0-26.2-11.8-26.2-26.2s11.8-26.2,26.2-26.2c9.9,0,19.2,5.8,23.6,14.9c0.2,0.5,0,1.1-0.5,1.3    c-0.5,0.2-1.1,0-1.3-0.5c-4.1-8.3-12.6-13.7-21.8-13.7c-13.3,0-24.2,10.9-24.2,24.2c0,13.3,10.9,24.2,24.2,24.2    c9.4,0,17.7-5.3,21.8-13.7c0.2-0.5,0.8-0.7,1.3-0.5c0.5,0.2,0.7,0.8,0.5,1.3C70.9,70.4,61.8,76.1,51.7,76.1z"/></g></g><g><path d="M65.3,58.3c-0.3,0-0.5-0.1-0.7-0.3c-0.4-0.4-0.4-1,0-1.4l6.7-6.6l-6.7-6.6c-0.4-0.4-0.4-1,0-1.4c0.4-0.4,1-0.4,1.4,0   l7.4,7.3c0.2,0.2,0.3,0.4,0.3,0.7s-0.1,0.5-0.3,0.7L66,58C65.8,58.2,65.6,58.3,65.3,58.3z"/></g><g><path d="M72.7,51H44c-0.6,0-1-0.4-1-1s0.4-1,1-1h28.7c0.6,0,1,0.4,1,1S73.3,51,72.7,51z"/></g></svg>