<svg xmlns:x="http://ns.adobe.com/Extensibility/1.0/" xmlns:i="http://ns.adobe.com/AdobeIllustrator/10.0/" xmlns:graph="http://ns.adobe.com/Graphs/1.0/" xmlns="http://www.w3.org/2000/svg" xmlns:xlink="http://www.w3.org/1999/xlink" version="1.1" x="0px" y="0px" viewBox="0 0 48 60" enable-background="new 0 0 48 48" xml:space="preserve"><metadata><sfw xmlns="http://ns.adobe.com/SaveForWeb/1.0/"><slices/><sliceSourceBounds y="-226.021" x="-8046" width="16383" height="222.021" bottomLeftOrigin="true"/></sfw></metadata><g><path d="M13,26.896V16.714C13,15.218,14.233,14,15.75,14h2.316c0.553,0,1-0.447,1-1s-0.447-1-1-1H15.75   C13.131,12,11,14.114,11,16.714v10.183c0,0.553,0.447,1,1,1S13,27.449,13,26.896z"/><path d="M43,35.286V16.714c0-2.6-2.131-4.714-4.75-4.714h-2.309c-0.553,0-1,0.447-1,1s0.447,1,1,1h2.309   c1.517,0,2.75,1.218,2.75,2.714v18.572C41,36.782,39.767,38,38.25,38h-22.5C14.233,38,13,36.782,13,35.286v-3.181   c0-0.553-0.447-1-1-1s-1,0.447-1,1v3.181c0,2.6,2.131,4.714,4.75,4.714h22.5C40.869,40,43,37.886,43,35.286z"/><path d="M31.66,12h-8.906c-0.553,0-1,0.447-1,1s0.447,1,1,1h8.906c0.553,0,1-0.447,1-1S32.213,12,31.66,12z"/><path d="M14,20.5c0,0.553,0.447,1,1,1h24c0.553,0,1-0.447,1-1s-0.447-1-1-1H15C14.447,19.5,14,19.947,14,20.5z"/><path d="M21.441,15.999v-7c0-0.553-0.447-1-1-1s-1,0.447-1,1v7c0,0.553,0.447,1,1,1S21.441,16.552,21.441,15.999z"/><path d="M34.785,15.999v-7c0-0.553-0.447-1-1-1s-1,0.447-1,1v7c0,0.553,0.447,1,1,1S34.785,16.552,34.785,15.999z"/><path d="M5,29.5c0,0.553,0.447,1,1,1h13.826l-1.585,1.85c-0.36,0.419-0.312,1.05,0.108,1.409C18.538,33.921,18.77,34,19,34   c0.281,0,0.562-0.118,0.759-0.35l3-3.5c0.039-0.045,0.059-0.1,0.088-0.149c0.027-0.046,0.061-0.087,0.08-0.137   c0.045-0.114,0.07-0.233,0.071-0.354c0-0.004,0.002-0.006,0.002-0.01s-0.002-0.006-0.002-0.01c-0.001-0.121-0.026-0.24-0.071-0.354   c-0.02-0.05-0.053-0.091-0.08-0.137c-0.03-0.05-0.049-0.104-0.088-0.149l-3-3.5c-0.358-0.42-0.99-0.468-1.409-0.108   c-0.42,0.359-0.469,0.99-0.108,1.409l1.585,1.85H6C5.447,28.5,5,28.947,5,29.5z"/></g></svg>