<svg xmlns:x="http://ns.adobe.com/Extensibility/1.0/" xmlns:i="http://ns.adobe.com/AdobeIllustrator/10.0/" xmlns:graph="http://ns.adobe.com/Graphs/1.0/" xmlns="http://www.w3.org/2000/svg" xmlns:xlink="http://www.w3.org/1999/xlink" version="1.1" x="0px" y="0px" viewBox="0 0 48 60" enable-background="new 0 0 48 48" xml:space="preserve"><metadata><sfw xmlns="http://ns.adobe.com/SaveForWeb/1.0/"><slices/><sliceSourceBounds y="-226.021" x="-8046" width="16383" height="222.021" bottomLeftOrigin="true"/></sfw></metadata><g><path d="M9.125,45H24c0.553,0,1-0.448,1-1s-0.447-1-1-1H9.125c-2.206,0-4-1.794-4-4V14c0-2.206,1.794-4,4-4h3.088   c0.553,0,1-0.448,1-1s-0.447-1-1-1H9.125c-3.309,0-6,2.691-6,6v25C3.125,42.309,5.816,45,9.125,45z"/><path d="M39.125,8h-3.078c-0.553,0-1,0.448-1,1s0.447,1,1,1h3.078c2.206,0,4,1.794,4,4v6.688c0,0.552,0.447,1,1,1s1-0.448,1-1V14   C45.125,10.691,42.434,8,39.125,8z"/><path d="M18.463,10h11.875c0.553,0,1-0.448,1-1s-0.447-1-1-1H18.463c-0.553,0-1,0.448-1,1S17.91,10,18.463,10z"/><path d="M40.125,18h-32c-0.553,0-1,0.448-1,1s0.447,1,1,1h32c0.553,0,1-0.448,1-1S40.678,18,40.125,18z"/><path d="M15.38,15c0.553,0,1-0.448,1-1V4c0-0.552-0.447-1-1-1s-1,0.448-1,1v10C14.38,14.552,14.827,15,15.38,15z"/><path d="M33.172,15c0.553,0,1-0.448,1-1V4c0-0.552-0.447-1-1-1s-1,0.448-1,1v10C32.172,14.552,32.619,15,33.172,15z"/><path d="M16.567,28h-5c-0.553,0-1,0.448-1,1s0.447,1,1,1h5c0.553,0,1-0.448,1-1S17.12,28,16.567,28z"/><path d="M16.567,33h-5c-0.553,0-1,0.448-1,1s0.447,1,1,1h5c0.553,0,1-0.448,1-1S17.12,33,16.567,33z"/><path d="M16.567,38h-5c-0.553,0-1,0.448-1,1s0.447,1,1,1h5c0.553,0,1-0.448,1-1S17.12,38,16.567,38z"/><path d="M22.762,24.289c0.386-0.385,1.019-0.384,1.404,0l1.194,1.19c0.392,0.39,1.024,0.388,1.414-0.003   c0.391-0.391,0.389-1.024-0.002-1.414l-1.196-1.192c-1.168-1.157-3.063-1.155-4.227,0.002l-1.408,1.404   c-0.564,0.563-0.875,1.312-0.875,2.109s0.311,1.546,0.875,2.109l1.219,1.214C21.355,29.903,21.611,30,21.866,30   c0.257,0,0.513-0.098,0.709-0.294c0.39-0.391,0.388-1.024-0.003-1.414l-1.219-1.213c-0.185-0.185-0.287-0.431-0.287-0.693   s0.103-0.508,0.287-0.693L22.762,24.289z"/><path d="M44.192,24.291l-1.41-1.417c-1.175-1.166-3.076-1.164-4.237,0.002l-1.186,1.185c-0.391,0.39-0.391,1.023,0,1.414   s1.023,0.391,1.414,0l1.187-1.186c0.389-0.388,1.023-0.385,1.408-0.001l1.408,1.414c0.387,0.387,0.387,1.017-0.002,1.406   l-1.18,1.185c-0.39,0.392-0.388,1.024,0.004,1.414C41.793,29.903,42.049,30,42.304,30c0.257,0,0.514-0.098,0.709-0.294l1.178-1.184   C45.357,27.354,45.357,25.456,44.192,24.291z"/><path d="M29.007,35.708h3c0.277,0,0.527-0.113,0.708-0.294c0.192-0.182,0.315-0.437,0.315-0.722v-5c0-0.552-0.447-1-1-1   s-1,0.448-1,1v4.017h-2.023c-0.553,0-1,0.448-1,1S28.454,35.708,29.007,35.708z"/><path d="M21.775,34.792c0.031,2.64,1.058,5.249,2.997,7.188c1.945,1.947,4.531,3.02,7.283,3.02c0.003,0,0.006,0,0.009,0   c0.001,0,0.001,0,0.002,0s0.002,0,0.004,0c2.745-0.004,5.327-1.075,7.271-3.019c1.94-1.94,2.966-4.547,2.998-7.185   c0.002-0.029,0.017-0.054,0.017-0.084c0-0.022-0.012-0.041-0.013-0.063c-0.004-1.659-0.401-3.325-1.221-4.84   c-0.461-0.863-1.061-1.667-1.781-2.389c-0.704-0.704-1.505-1.304-2.384-1.784c-1.444-0.78-3.079-1.174-4.72-1.201   c-0.058-0.01-0.11-0.034-0.171-0.034c-0.054,0-0.1,0.022-0.151,0.031c-1.665,0.022-3.325,0.425-4.785,1.222   c-0.868,0.471-1.662,1.066-2.354,1.764c-0.711,0.705-1.315,1.518-1.798,2.415c-0.809,1.504-1.202,3.156-1.208,4.801   c-0.002,0.024-0.014,0.044-0.014,0.068C21.757,34.732,21.772,34.76,21.775,34.792z M26.19,28.831   c0.56-0.565,1.196-1.042,1.895-1.421c0.922-0.502,1.938-0.822,2.981-0.948V27.4c0,0.552,0.447,1,1,1s1-0.448,1-1v-0.938   c1.028,0.126,2.029,0.441,2.937,0.931c0.707,0.386,1.354,0.871,1.924,1.44c0.581,0.582,1.063,1.227,1.433,1.921   c0.506,0.933,0.79,1.939,0.909,2.957h-0.913c-0.553,0-1,0.448-1,1s0.447,1,1,1h0.916c-0.223,1.797-1.012,3.521-2.345,4.854   c-1.328,1.328-3.026,2.144-4.86,2.366V42c0-0.552-0.447-1-1-1s-1,0.448-1,1v0.936c-1.842-0.218-3.548-1.036-4.879-2.369   c-1.336-1.335-2.124-3.065-2.346-4.866h0.915c0.553,0,1-0.448,1-1s-0.447-1-1-1h-0.912c0.118-1.006,0.399-1.999,0.896-2.921   C25.129,30.056,25.615,29.402,26.19,28.831z"/></g></svg>